<?xml version="1.0" encoding="utf-8"?>
<!-- Generator: Adobe Illustrator 25.2.1, SVG Export Plug-In . SVG Version: 6.00 Build 0)  -->
<svg version="1.1" id="Capa_1" xmlns="http://www.w3.org/2000/svg" xmlns:xlink="http://www.w3.org/1999/xlink" x="0px" y="0px"
	 viewBox="0 0 340.65 145.55" style="enable-background:new 0 0 340.65 145.55;" xml:space="preserve">
<style type="text/css">
	.st0{fill:#FFFFFF;}
	.st1{display:none;fill:#FFFFFF;}
</style>
<g>
	<path id="circulo_7_" class="st0" d="M39.06,111.72c21.57,0,39.06-17.49,39.06-39.06c0-21.57-17.49-39.06-39.06-39.06
		S0,51.09,0,72.66C0,94.23,17.49,111.72,39.06,111.72z M39.06,38.49c18.84,0,34.17,15.33,34.17,34.17
		c0,18.84-15.33,34.17-34.17,34.17S4.88,91.51,4.88,72.66C4.88,53.82,20.21,38.49,39.06,38.49z"/>
	<path id="cursor_10_" class="st0" d="M27.77,97.95c-0.02-0.01-0.05-0.01-0.07-0.02c-1.3-0.45-2.17-1.68-2.18-3.08l-0.32-44.24
		c-0.01-1.26,0.68-2.42,1.78-3c1.1-0.59,2.42-0.49,3.42,0.25l35.01,25.88c1.11,0.82,1.58,2.26,1.19,3.6
		c-0.4,1.34-1.58,2.3-2.95,2.39l-19.82,1.3L31.31,96.85C30.46,97.93,29.05,98.36,27.77,97.95L27.77,97.95z"/>
	<g>
		<circle id="punto_21_" class="st0" cx="269.63" cy="102.8" r="5.5"/>
		<path class="st0" d="M138.47,54.68V92.1c0,10.61-5.88,16.2-14.37,16.2c-3.66,0-7.04-0.87-9.45-3.57c-2.41,2.7-5.79,3.57-9.45,3.57
			c-8.49,0-14.37-5.59-14.37-16.2V54.68c0-3.18,2.51-5.79,5.69-5.79c3.18,0,5.69,2.6,5.69,5.79v37.12c0,4.63,1.06,6.07,3.28,6.07
			c2.51,0,3.47-1.45,3.47-6.07V54.68c0-3.18,2.51-5.79,5.69-5.79c3.18,0,5.69,2.6,5.69,5.79v37.12c0,4.63,1.06,6.07,3.47,6.07
			c2.31,0,3.28-1.45,3.28-6.07V54.68c0-3.18,2.51-5.79,5.69-5.79C135.96,48.9,138.47,51.5,138.47,54.68z"/>
		<path class="st0" d="M145.21,92V64.42c0-10.51,5.98-15.52,14.75-15.52c8.97,0,14.56,5.01,14.56,15.52v13.5
			c0,4.82-2.6,7.14-7.42,7.14h-10.51V92c0,4.24,1.35,6.07,3.76,6.07c2.8,0,3.37-1.83,3.37-4.34v-0.58c0-2.99,2.31-5.3,5.3-5.3
			c2.99,0,5.3,2.31,5.3,5.3v1.45c0,8.97-5.5,13.69-14.08,13.69C151.09,108.3,145.21,102.7,145.21,92z M163.34,75.9V64.04
			c0-4.63-0.96-6.17-3.47-6.17c-2.22,0-3.28,1.54-3.28,6.17V75.9H163.34z"/>
		<path class="st0" d="M210.58,63.94V92.1c0,10.61-5.88,16.2-14.85,16.2c-8.77,0-14.66-5.59-14.66-16.2V39.83
			c0-3.18,2.48-6.37,5.66-6.37s5.72,3.19,5.72,6.37l0.01,10.33c0.34-0.19,1.43-0.88,3.37-1.12
			C203.54,48.09,210.58,53.33,210.58,63.94z M199.2,64.13c0.23-5.06-1.27-6.27-3.47-6.27c-1.78,0-3.58,0.93-3.28,6.85V92
			c-0.04,4.9,1.4,5.98,3.28,6.07c2.05,0.1,3.56-1.01,3.47-6.07V64.13z"/>
		<path class="st0" d="M218,39.25c0-3.28,2.51-5.78,5.78-5.78c3.28,0,5.79,2.51,5.79,5.78c0,3.28-2.51,5.79-5.79,5.79
			C220.51,45.04,218,42.53,218,39.25z"/>
		<path class="st0" d="M218.1,102.52V54.77c0-3.23,2.51-5.87,5.69-5.87c3.18,0,5.69,2.64,5.69,5.87v47.75
			c0,3.23-2.51,5.77-5.69,5.77C220.61,108.3,218.1,105.75,218.1,102.52z"/>
		<path class="st0" d="M262.36,102.71c0,3.14-2.31,5.59-5.4,5.59h-15.81c-4.24,0-6.27-3.14-4.82-8.14l11.96-40.09h-8.49
			c-3.09,0-5.4-2.45-5.4-5.59c0-3.14,2.31-5.59,5.4-5.59h16.01c4.24,0,6.08,3.14,4.63,8.14l-11.95,40.09h8.48
			C260.04,97.12,262.36,99.57,262.36,102.71z"/>
		<circle id="punto_18_" class="st1" cx="256.86" cy="102.8" r="5.5"/>
		<path class="st0" d="M305.36,64.63v37.18c0,3.15-2.51,5.63-5.69,5.63c-1.25,0-2.51-0.38-3.38-1.14c-1.93,1.33-4.82,2-6.85,2
			c-8.2,0-13.5-4.77-13.5-13.73V83.79c0-9.15,5.3-13.92,13.5-13.92c1.35,0,3.09,0.38,4.63,0.95v-6.2c0-4.39-1.06-5.63-3.09-5.63
			c-2.22,0-3.28,1.53-3.28,4.1v0.19c0,2.96-2.12,5.24-5.3,5.24c-3.28,0-5.4-2.19-5.4-5.72v-0.76c0-7.63,5.11-13.16,13.88-13.16
			C300.63,48.9,305.36,54.43,305.36,64.63z M294.08,85.32c0-4.48-1.45-6.58-3.57-6.58c-2.31,0-3.38,1.43-3.38,6.1v8.49
			c0,4.48,1.06,6.1,3.38,6.1c2.12,0,3.57-2.29,3.57-6.67V85.32z"/>
		<path class="st0" d="M312.1,102.62V65.07c0-10.59,5.78-16.17,14.37-16.17c8.58,0,14.17,5.01,14.17,15.69v5.1
			c0,3.18-2.51,5.68-5.5,5.68c-3.18,0-5.49-2.5-5.49-5.68v-4.62c0-4.53-0.87-5.87-3.18-5.87c-2.22,0-2.99,1.64-2.99,6.26v37.16
			c0,3.18-2.51,5.68-5.69,5.68C314.61,108.3,312.1,105.79,312.1,102.62z"/>
	</g>
</g>
</svg>
